# xmcd
#
# Track frame offsets:
#	150
#	24781
#	52999
#	69121
#	87604
#	109033
#	130603
#	160964
#	186348
#	205357
#	224179
#	245515
#	270292
#	292579
#
# Disc length: 4143 seconds
#
# Revision: 0
# Processed by: cddbd v1.5.2PL0 Copyright (c) Steve Scherf et al.
# Submitted via: audiograbber 1.83.01
#
DISCID=c2102d0e
DTITLE=Various Artist - Soul Hits of the 80's CD3
DYEAR=2004
DGENRE=Soul
TTITLE0=Herbie Hancock - Rockit
TTITLE1=Grover Washington, JR. - Summer Nights
TTITLE2=Terence Trent D'Arby - Wishing Well
TTITLE3=Bill Withers - Oh Yeah!
TTITLE4=Gladys Knight and The Pips - Save The Overtime
TTITLE5=Brick - Sweat (Till You Get Wet)
TTITLE6=The P-Funk All Stars - Hydraulic Pump
TTITLE7=Isaac Hayes - Love Attack
TTITLE8=Deniece Williams - It's Gonna Take a Miracle
TTITLE9=Regina Belle - Show Me The Way
TTITLE10=Billy Ocean - Nights (Feel Like Gettin' Down) -
TTITLE11=Johnny Kemp - Just Got Paid
TTITLE12=Enchantment - I Know Your Hot Spot
TTITLE13=Babyface - It's No Crime
EXTD=
EXTT0=
EXTT1=
EXTT2=
EXTT3=
EXTT4=
EXTT5=
EXTT6=
EXTT7=
EXTT8=
EXTT9=
EXTT10=
EXTT11=
EXTT12=
EXTT13=
PLAYORDER=
